<svg width="32" height="32" viewBox="0 0 32 32" fill="none" xmlns="http://www.w3.org/2000/svg">
<g clip-path="url(#clip0_5_1797)">
<path d="M28.1974 24.2013C27.7277 25.2862 27.1718 26.285 26.5278 27.2031C25.6498 28.4549 24.931 29.3213 24.377 29.8024C23.5182 30.5922 22.5981 30.9967 21.6129 31.0197C20.9055 31.0197 20.0525 30.8184 19.0596 30.4101C18.0634 30.0037 17.1479 29.8024 16.3108 29.8024C15.4328 29.8024 14.4912 30.0037 13.4841 30.4101C12.4754 30.8184 11.6629 31.0312 11.0416 31.0523C10.0968 31.0925 9.15502 30.6765 8.21498 29.8024C7.61499 29.2791 6.86453 28.382 5.96551 27.1111C5.00094 25.754 4.20792 24.1802 3.58666 22.386C2.92131 20.448 2.58777 18.5714 2.58777 16.7546C2.58777 14.6734 3.03747 12.8784 3.93821 11.3742C4.64612 10.166 5.58789 9.21294 6.76658 8.51328C7.94527 7.81361 9.21885 7.45707 10.5904 7.43426C11.3408 7.43426 12.325 7.66639 13.5479 8.12261C14.7675 8.58037 15.5505 8.8125 15.8938 8.8125C16.1505 8.8125 17.0204 8.54107 18.495 7.99993C19.8896 7.49809 21.0665 7.2903 22.0307 7.37215C24.6435 7.58301 26.6063 8.61295 27.9117 10.4685C25.5751 11.8843 24.4192 13.8673 24.4422 16.4112C24.4633 18.3927 25.1821 20.0416 26.5948 21.3509C27.2351 21.9585 27.9501 22.4282 28.7456 22.7617C28.5731 23.262 28.391 23.7412 28.1974 24.2013ZM22.2052 0.621634C22.2052 2.17472 21.6378 3.62482 20.5068 4.96703C19.142 6.56265 17.4912 7.48467 15.701 7.33918C15.6782 7.15286 15.665 6.95676 15.665 6.7507C15.665 5.25974 16.314 3.66412 17.4666 2.35949C18.0421 1.69893 18.774 1.14968 19.6615 0.711535C20.5471 0.279928 21.3848 0.0412405 22.1726 0.000366211C22.1956 0.207989 22.2052 0.415625 22.2052 0.621614V0.621634Z" fill="white"/>
</g>
<defs>
<clipPath id="clip0_5_1797">
<rect width="31.0545" height="31.0545" fill="white"/>
</clipPath>
</defs>
</svg>
