<svg width="31" height="32" viewBox="0 0 31 32" fill="none" xmlns="http://www.w3.org/2000/svg">
<path d="M15.527 12.7041V18.7174H23.8834C23.5165 20.6512 22.4153 22.2887 20.7638 23.3897L25.8031 27.2998C28.7392 24.5897 30.4331 20.609 30.4331 15.8803C30.4331 14.7793 30.3343 13.7205 30.1507 12.7043L15.527 12.7041Z" fill="white"/>
<path d="M6.82512 18.4827L5.68857 19.3527L1.66553 22.4863C4.22046 27.5538 9.457 31.0546 15.5267 31.0546C19.719 31.0546 23.2337 29.6712 25.8028 27.2998L20.7636 23.3897C19.3802 24.3214 17.6157 24.8861 15.5267 24.8861C11.4896 24.8861 8.05962 22.1618 6.83147 18.4916L6.82512 18.4827Z" fill="white"/>
<path d="M1.66553 8.56824C0.606912 10.6573 0 13.0146 0 15.5272C0 18.0397 0.606912 20.3971 1.66553 22.4861C1.66553 22.5002 6.83197 18.4773 6.83197 18.4773C6.52142 17.5456 6.33787 16.5576 6.33787 15.527C6.33787 14.4964 6.52142 13.5084 6.83197 12.5768L1.66553 8.56824Z" fill="white"/>
<path d="M15.527 6.18267C17.8138 6.18267 19.8464 6.97313 21.4697 8.49765L25.9161 4.05126C23.22 1.53871 19.7194 0 15.527 0C9.45732 0 4.22046 3.48657 1.66553 8.56824L6.8318 12.5771C8.0598 8.90698 11.49 6.18267 15.527 6.18267Z" fill="white"/>
</svg>
