<svg width="32" height="32" viewBox="0 0 32 32" fill="none" xmlns="http://www.w3.org/2000/svg">
<g clip-path="url(#clip0_5_1794)">
<path d="M28.7558 0H2.2927C1.02504 0 0 1.00078 0 2.23811V28.8104C0 30.0477 1.02504 31.0545 2.2927 31.0545H28.7558C30.0234 31.0545 31.0545 30.0477 31.0545 28.8164V2.23811C31.0545 1.00078 30.0234 0 28.7558 0ZM9.21325 26.4631H4.60359V11.6394H9.21325V26.4631ZM6.90842 9.61963C5.42848 9.61963 4.23361 8.42476 4.23361 6.95088C4.23361 5.477 5.42848 4.28213 6.90842 4.28213C8.3823 4.28213 9.57717 5.477 9.57717 6.95088C9.57717 8.41869 8.3823 9.61963 6.90842 9.61963ZM26.4631 26.4631H21.8595V19.2575C21.8595 17.541 21.8292 15.3271 19.4637 15.3271C17.0679 15.3271 16.7039 17.2013 16.7039 19.1362V26.4631H12.1064V11.6394H16.522V13.6652H16.5826C17.1952 12.5007 18.6994 11.2694 20.9376 11.2694C25.6018 11.2694 26.4631 14.3385 26.4631 18.3295V26.4631Z" fill="white"/>
</g>
<defs>
<clipPath id="clip0_5_1794">
<rect width="31.0545" height="31.0545" fill="white"/>
</clipPath>
</defs>
</svg>
